<svg height="21.3911mm" viewBox="0 0 35 21.391105" width="35mm" xmlns="http://www.w3.org/2000/svg">
  <path d="m18.91621843622 11.21958655505h2.56246022423m-2.56246022423-7.13225567819h2.56246022423m-2.56246022423 0c-.45328914291-.85810723164-1.34355924982-1.44759588887-2.38517647846-1.44759588887h-10.94952796825c-1.50023210526 0-2.70706743438 1.20837845939-2.70706743438 2.70860626623v4.61178879976c0 1.50023210526 1.20683532912 2.70705453914 2.70706743438 2.70705453914h10.94952796825c1.04212873978 0 1.93209795778-.58879661274 2.38517647846-1.44759803808m2.56246022423-7.13225567819c-.53338577076-2.07862011092-2.40732190224-3.60888737702-4.65688774896-3.60888737702h-11.52949134227c-2.66707929824 0-4.81392167109 2.14840054756-4.81392167109 4.8154776966v4.72062676613c0 2.66707929824 2.14684237285 4.81396465522 4.81392167109 4.81396465522h11.52949134227c2.25007735787 0 4.12401348935-1.52954728192 4.65688774896-3.60892606274m-15.99705978906-1.44387991083v-4.24339546281c0-.16669245614.07612489423-.30088891.17060401197-.30088891h4.30475745759" fill="none" stroke="#f0f4ff" stroke-linecap="round" stroke-width=".9568267338"/>
  <path d="m16.08371041526 10.17156898946h-2.56246022423m2.56246022423 7.13227072264h-2.56246022423m2.56246022423 0c.45328914291.85809218719 1.34355924982 1.44759803808 2.38517647846 1.44759803808h10.94952796825c1.50023210526 0 2.70706743438-1.20839135463 2.70706743438-2.70862345988v-4.61178879977c0-1.50023210526-1.20683532912-2.7070760312-2.70706743438-2.7070760312h-10.94952796825c-1.04212873978 0-1.93209795778.58883959687-2.38517647846 1.44761953014m-2.56246022423 7.13227072264c.53338577076 2.07862655854 2.40732190224 3.60888307861 4.65688774896 3.60888307861h11.52949134227c2.66707929824 0 4.81391952188-2.1484112936 4.81391952188-4.81549059184v-4.72064610899c0-2.66703631411-2.14684022364-4.81392167109-4.81391952188-4.81392167109h-11.52949134227c-2.25007735787 0-4.12401348935 1.52954728192-4.65688774896 3.60890457067m15.99705978906 1.44385841876v4.24341480566c0 .1667784244-.07612489423.30088891-.17060401197.30088891h-4.30475745759" fill="none" stroke="#f0f4ff" stroke-linecap="round" stroke-width=".9568267338"/>
  <g fill="#f0f5ff">
    <path d="m8.6308726479 17.46965099357c-.25003868421 0-.45247674286.2024552523-.45247674286.45247244445v.40271831397c0 .25003868421.20249823643.45247244445.45247674286.45247244445h.40424425059c.25003868421 0 .45094220942-.2024552523.45094220942-.45247244445v-.40271831397c0-.25003868421-.20099379188-.45247244445-.45094220942-.45247244445zm-1.30766320286 1.30766320286c-.25003868421 0-.45094220942.20095080775-.45094220942.4509035237v.40428723471c0 .25003868421.20099379188.4509035237.45094220942.4509035237h.40424425059c.25003868421 0 .45094220942-.20095080775.45094220942-.4509035237v-.40428723471c0-.25003868421-.20099379188-.4509035237-.45094220942-.4509035237zm2.61376178339 0c-.25003868421 0-.45091212053.20095080775-.45091212053.4509035237v.40428723471c0 .25003868421.20099379188.4509035237.45091212053.4509035237h.40427433948c.25003868421 0 .45091212053-.20095080775.45091212053-.4509035237v-.40428723471c0-.25003868421-.20099379188-.4509035237-.45091212053-.4509035237zm-1.30609858053 1.30609428211c-.25003868421 0-.45247674286.20095080775-.45247674286.4509035237v.40428723471c0 .25003868421.20249823643.45247244444.45247674286.45247244444h.40424425059c.25003868421 0 .45094220942-.2024552523.45094220942-.45247244444v-.40428723471c0-.25001719215-.20099379188-.4509035237-.45094220942-.4509035237z"/>
    <path d="m24.911971568.00003013294c-.25003868421 0-.45247674286.20243376023-.45247674286.45247029524v.40271616476c0 .25003868421.20249823643.45247244445.45247674286.45247244445h.40424425059c.25003868421 0 .45094220942-.20243376023.45094220942-.45247244445v-.40271616476c0-.25003868421-.20099379188-.45247029524-.45094220942-.45247029524zm-1.30766320286 1.30765890445c-.25003868421 0-.45094220942.20086483949-.45094220942.45092286656v.40426789186c0 .25003868421.20099379188.45091856815.45094220942.45091856815h.40424425058c.25003868421 0 .45094220942-.20086483949.45094220942-.45091856815v-.40426789186c0-.25003868421-.20099379188-.45092286656-.45094220942-.45092286656zm2.61376178339 0c-.25003868421 0-.45091212053.20086483949-.45091212053.45092286656v.40426789186c0 .25003868421.20099379188.45091856815.45091212053.45091856815h.40427433948c.25003868421 0 .45091212053-.20086483949.45091212053-.45091856815v-.40426789186c0-.25003868421-.20099379188-.45092286656-.45091212053-.45092286656zm-1.30609858053 1.30610932656c-.25003868421 0-.45247674286.20086483949-.45247674286.45091212053v.40427648868c0 .25003868421.20249823643.45247459365.45247674286.45247459365h.40424425058c.25003868421-.00001074603.45094220942-.20243376023.45094220942-.45247459365v-.40427648868c0-.25003868421-.20099379188-.45091212053-.45094220942-.45091212053z"/>
  </g>
</svg>
